<svg xmlns="http://www.w3.org/2000/svg" viewBox="0 0 24 24" width="48" height="48" fill="currentColor">
    <path d="M14.05 2.5C14.43 2.5 14.79 2.66 15.05 2.92L21.07 9.04C21.5 9.47 21.5 10.13 21.07 10.56L18.41 13.21L15.99 10.79L14.26 12.53L16.7 15L16.7 19H13.7L10 22H5.5L2.5 19H2V18.5L5 15.5L7.5 13L10 15.5L11.84 13.66L13.5 15.5L12 17L12 20L14.07 22H20C20.55 22 21 21.55 21 21V15L18.66 12.66L16 15.31L13.36 12.68L14.05 12L17.5 8.5L19 7L16.41 4.41C16.07 4.07 15.66 3.85 15.24 3.87L9 8L6.91 5.91L7.91 4.91L10.5 2.5C10.91 2.09 11.39 2 11.75 2C12.1 2 12.48 2.1 12.83 2.25C13.31 2.49 13.72 2.85 14.05 2.5Z"/>
</svg>
