<svg xmlns="http://www.w3.org/2000/svg" viewBox="0 0 100 100" fill="none">
    <rect width="100" height="100" fill="white" rx="15" />
    <path d="M25 25H75V75H25z" fill="url(#grad1)" />
    <path d="M30 30L45 30L45 45L30 45z" fill="#FFD700" />
    <path d="M55 30L70 30L70 45L55 45z" fill="#FFD700" />
    <path d="M40 50L60 50L60 70L40 70z" fill="#FFD700" />
    <path d="M50 10C50 5 45 0 40 0C35 0 30 5 30 10C30 15 35 15 40 15C45 15 50 15 50 10z" fill="#FF6347" />
    <path d="M70 30C70 25 65 20 60 20C55 20 50 25 50 30C50 35 55 35 60 35C65 35 70 35 70 30z" fill="#FF6347" />
    <defs>
        <linearGradient id="grad1" x1="0%" y1="0%" x2="100%" y2="100%">
            <stop offset="0%" style="stop-color:#f0f0f0;stop-opacity:1" />
            <stop offset="100%" style="stop-color:#e2e8f0;stop-opacity:1" />
        </linearGradient>
    </defs>
</svg>